<svg id="Layer_1" data-name="Layer 1" xmlns="http://www.w3.org/2000/svg" viewBox="0 0 621.45 621.45"><defs><style>.cls-1{fill:#00a7cf;}</style></defs><title>amplitude-logomark</title><path class="cls-1" d="M278.06,146.17c-1.73-2.27-3.69-3.47-5.86-3.47a8.65,8.65,0,0,0-4.49,1.48c-16.55,13-39.19,68.05-57.74,140.6L226.39,285c32.44,0.37,65.94.75,99.05,1.26-8.73-33.23-17-61.71-24.54-84.71C289.85,167.92,282.38,152.87,278.06,146.17Z" transform="translate(-4.17 -6.3)"/><path class="cls-1" d="M314.89,6.3C143.28,6.3,4.17,145.41,4.17,317S143.28,627.75,314.89,627.75,625.62,488.63,625.62,317,486.5,6.3,314.89,6.3ZM538.32,322.67l-0.07.06q-0.5.41-1,.77l-0.34.24c-0.24.16-.48,0.3-0.73,0.44s-0.45.27-.68,0.39l0,0a16.44,16.44,0,0,1-7.65,1.89H380.59c1.18,4.88,2.46,10.42,3.86,16.45,8.07,34.83,29.5,127.36,52.26,127.36h0.45l0.25,0h0.44c17.78,0,26.86-25.71,46.75-82l0.24-.68c3.2-9,6.8-19.25,10.7-30l1-2.75h0A7.12,7.12,0,0,1,510,359.3h0l-0.83,2.77c-2.08,6.71-4.28,15.84-6.83,26.41-11.86,49.13-29.76,123.35-75.71,123.35h-0.33c-29.69-.23-47.46-47.7-55-68C357.09,406,346.35,365.58,336,326.47H200.52l-28.13,90-0.41-.33a14.3,14.3,0,0,1-26.37-7.6l0-.49,1.7-10.18c3.88-23.13,8.54-47.14,13.85-71.42H104l-0.21-.22a21.65,21.65,0,0,1-18.36-21.34A21.43,21.43,0,0,1,103,283.72a55.13,55.13,0,0,1,6.69-.28l2.78,0c18.14,0.31,37.37.6,58.48,0.87C200.83,163,235.42,101.39,273.79,101.22c41.17,0,71.71,93.74,96.16,185.44L370,287c50.23,1,103.77,2.47,155.81,6.2l2.18,0.2a16.58,16.58,0,0,1,2.46.23l0.3,0,0.27,0.06,0.14,0A16.46,16.46,0,0,1,538.32,322.67Z" transform="translate(-4.17 -6.3)"/></svg>